<svg width="70" height="150" viewBox="0 0 70 150" fill="none" xmlns="http://www.w3.org/2000/svg">
<ellipse cx="59.8387" cy="143.864" rx="5.64516" ry="3.40909" transform="rotate(180 59.8387 143.864)" fill="#E12020"/>
<ellipse cx="59.8387" cy="7.50009" rx="5.64516" ry="3.40909" transform="rotate(180 59.8387 7.50009)" fill="#0DB75F"/>
<ellipse cx="41.7743" cy="7.50009" rx="5.64516" ry="3.40909" transform="rotate(180 41.7743 7.50009)" fill="#0DB75F"/>
<ellipse cx="23.7096" cy="7.50009" rx="5.64516" ry="3.40909" transform="rotate(180 23.7096 7.50009)" fill="#0DB75F"/>
<ellipse cx="59.8387" cy="21.1363" rx="5.64516" ry="3.40909" transform="rotate(180 59.8387 21.1363)" fill="#0DB75F"/>
<ellipse cx="41.7743" cy="21.1363" rx="5.64516" ry="3.40909" transform="rotate(180 41.7743 21.1363)" fill="#0DB75F"/>
<ellipse cx="23.7096" cy="21.1363" rx="5.64516" ry="3.40909" transform="rotate(180 23.7096 21.1363)" fill="#0DB75F"/>
<ellipse cx="59.8387" cy="34.7728" rx="5.64516" ry="3.40909" transform="rotate(180 59.8387 34.7728)" fill="#0DB75F"/>
<ellipse cx="41.7743" cy="34.7728" rx="5.64516" ry="3.40909" transform="rotate(180 41.7743 34.7728)" fill="#0DB75F"/>
<ellipse cx="23.7096" cy="34.7728" rx="5.64516" ry="3.40909" transform="rotate(180 23.7096 34.7728)" fill="#0DB75F"/>
<ellipse cx="59.8387" cy="48.409" rx="5.64516" ry="3.40909" transform="rotate(180 59.8387 48.409)" fill="#0DB75F"/>
<ellipse cx="41.7743" cy="48.409" rx="5.64516" ry="3.40909" transform="rotate(180 41.7743 48.409)" fill="#0DB75F"/>
<ellipse cx="23.7096" cy="48.409" rx="5.64516" ry="3.40909" transform="rotate(180 23.7096 48.409)" fill="#0DB75F"/>
<ellipse cx="59.8387" cy="62.0455" rx="5.64516" ry="3.40909" transform="rotate(180 59.8387 62.0455)" fill="#0DB75F"/>
<ellipse cx="41.7743" cy="62.0455" rx="5.64516" ry="3.40909" transform="rotate(180 41.7743 62.0455)" fill="#0DB75F"/>
<ellipse cx="23.7096" cy="62.0455" rx="5.64516" ry="3.40909" transform="rotate(180 23.7096 62.0455)" fill="#0DB75F"/>
<ellipse cx="59.8387" cy="75.6817" rx="5.64516" ry="3.40909" transform="rotate(180 59.8387 75.6817)" fill="#0DB75F"/>
<ellipse cx="41.7743" cy="75.6817" rx="5.64516" ry="3.40909" transform="rotate(180 41.7743 75.6817)" fill="#0DB75F"/>
<ellipse cx="23.7096" cy="75.6817" rx="5.64516" ry="3.40909" transform="rotate(180 23.7096 75.6817)" fill="#0DB75F"/>
<ellipse cx="59.8387" cy="89.3182" rx="5.64516" ry="3.40909" transform="rotate(180 59.8387 89.3182)" fill="#E12020"/>
<ellipse cx="41.7743" cy="89.3182" rx="5.64516" ry="3.40909" transform="rotate(180 41.7743 89.3182)" fill="#E12020"/>
<ellipse cx="59.8387" cy="102.954" rx="5.64516" ry="3.40909" transform="rotate(180 59.8387 102.954)" fill="#E12020"/>
<ellipse cx="23.7096" cy="102.954" rx="5.64516" ry="3.40909" transform="rotate(180 23.7096 102.954)" fill="#0DB75F"/>
<ellipse cx="23.7096" cy="89.3182" rx="5.64516" ry="3.40909" transform="rotate(180 23.7096 89.3182)" fill="#0DB75F"/>
<ellipse cx="41.7743" cy="102.954" rx="5.64516" ry="3.40909" transform="rotate(180 41.7743 102.954)" fill="#E12020"/>
<ellipse cx="59.8387" cy="116.591" rx="5.64516" ry="3.40909" transform="rotate(180 59.8387 116.591)" fill="#E12020"/>
<ellipse cx="23.7096" cy="116.591" rx="5.64516" ry="3.40909" transform="rotate(180 23.7096 116.591)" fill="#0DB75F"/>
<ellipse cx="41.7743" cy="116.591" rx="5.64516" ry="3.40909" transform="rotate(180 41.7743 116.591)" fill="#E12020"/>
<ellipse cx="59.8387" cy="130.227" rx="5.64516" ry="3.40909" transform="rotate(180 59.8387 130.227)" fill="#E12020"/>
<ellipse cx="23.7096" cy="130.227" rx="5.64516" ry="3.40909" transform="rotate(180 23.7096 130.227)" fill="#0DB75F"/>
<ellipse cx="41.7743" cy="130.227" rx="5.64516" ry="3.40909" transform="rotate(180 41.7743 130.227)" fill="#E12020"/>
<path d="M5.64516 140.455C6.38649 140.455 7.12057 140.543 7.80547 140.714C8.49037 140.885 9.11269 141.136 9.63689 141.453C10.1611 141.77 10.5769 142.145 10.8606 142.559C11.1443 142.973 11.2903 143.416 11.2903 143.864C11.2903 144.311 11.1443 144.755 10.8606 145.168C10.5769 145.582 10.1611 145.958 9.63689 146.274C9.11269 146.591 8.49037 146.842 7.80547 147.013C7.12057 147.185 6.38649 147.273 5.64516 147.273L5.64516 143.864L5.64516 140.455Z" fill="#0DB75F"/>
<path d="M5.64516 126.818C6.38649 126.818 7.12057 126.906 7.80547 127.078C8.49037 127.249 9.11269 127.5 9.63689 127.817C10.1611 128.133 10.5769 128.509 10.8606 128.923C11.1443 129.336 11.2903 129.78 11.2903 130.227C11.2903 130.675 11.1443 131.118 10.8606 131.532C10.5769 131.946 10.1611 132.321 9.63689 132.638C9.11269 132.955 8.49037 133.206 7.80547 133.377C7.12057 133.548 6.38649 133.636 5.64516 133.636L5.64516 130.227L5.64516 126.818Z" fill="#0DB75F"/>
<path d="M5.64516 58.6364C6.38649 58.6364 7.12057 58.7246 7.80547 58.8959C8.49037 59.0672 9.11269 59.3183 9.63689 59.6349C10.1611 59.9515 10.5769 60.3273 10.8606 60.7409C11.1443 61.1545 11.2903 61.5978 11.2903 62.0455C11.2903 62.4932 11.1443 62.9365 10.8606 63.3501C10.5769 63.7637 10.1611 64.1395 9.63689 64.4561C9.11269 64.7727 8.49037 65.0238 7.80547 65.1951C7.12057 65.3664 6.38649 65.4546 5.64516 65.4546L5.64516 62.0455L5.64516 58.6364Z" fill="#0DB75F"/>
<path d="M5.64516 44.9999C6.38649 44.9999 7.12057 45.0881 7.80547 45.2594C8.49037 45.4308 9.11269 45.6819 9.63689 45.9984C10.1611 46.315 10.5769 46.6908 10.8606 47.1044C11.1443 47.518 11.2903 47.9613 11.2903 48.409C11.2903 48.8567 11.1443 49.3 10.8606 49.7136C10.5769 50.1272 10.1611 50.5031 9.63689 50.8196C9.11269 51.1362 8.49037 51.3873 7.80547 51.5586C7.12057 51.7299 6.38649 51.8181 5.64516 51.8181L5.64516 48.409L5.64516 44.9999Z" fill="#0DB75F"/>
<path d="M5.64516 31.3637C6.38649 31.3637 7.12057 31.4519 7.80547 31.6232C8.49037 31.7945 9.11269 32.0456 9.63689 32.3622C10.1611 32.6788 10.5769 33.0546 10.8606 33.4682C11.1443 33.8818 11.2903 34.3251 11.2903 34.7728C11.2903 35.2205 11.1443 35.6638 10.8606 36.0774C10.5769 36.491 10.1611 36.8668 9.63689 37.1834C9.11269 37.4999 8.49037 37.7511 7.80547 37.9224C7.12057 38.0937 6.38649 38.1819 5.64516 38.1819L5.64516 34.7728L5.64516 31.3637Z" fill="#0DB75F"/>
<path d="M5.64516 17.7272C6.38649 17.7272 7.12057 17.8154 7.80547 17.9867C8.49037 18.1581 9.11269 18.4092 9.63689 18.7257C10.1611 19.0423 10.5769 19.4181 10.8606 19.8317C11.1443 20.2453 11.2903 20.6886 11.2903 21.1363C11.2903 21.584 11.1443 22.0273 10.8606 22.4409C10.5769 22.8545 10.1611 23.2303 9.63689 23.5469C9.11269 23.8635 8.49037 24.1146 7.80547 24.2859C7.12057 24.4572 6.38649 24.5454 5.64516 24.5454L5.64516 21.1363L5.64516 17.7272Z" fill="#0DB75F"/>
<path d="M5.64516 4.091C6.38649 4.091 7.12057 4.17918 7.80547 4.3505C8.49037 4.52182 9.11269 4.77293 9.63689 5.0895C10.1611 5.40606 10.5769 5.78188 10.8606 6.19549C11.1443 6.6091 11.2903 7.0524 11.2903 7.50009C11.2903 7.94778 11.1443 8.39108 10.8606 8.80469C10.5769 9.2183 10.1611 9.59412 9.63689 9.91068C9.11269 10.2272 8.49037 10.4784 7.80547 10.6497C7.12057 10.821 6.38649 10.9092 5.64516 10.9092L5.64516 7.50009L5.64516 4.091Z" fill="#0DB75F"/>
<path d="M5.64516 72.2726C6.38649 72.2726 7.12057 72.3608 7.80547 72.5321C8.49037 72.7035 9.11269 72.9546 9.63689 73.2711C10.1611 73.5877 10.5769 73.9635 10.8606 74.3771C11.1443 74.7907 11.2903 75.234 11.2903 75.6817C11.2903 76.1294 11.1443 76.5727 10.8606 76.9863C10.5769 77.3999 10.1611 77.7758 9.63689 78.0923C9.11269 78.4089 8.49037 78.66 7.80547 78.8313C7.12057 79.0026 6.38649 79.0908 5.64516 79.0908L5.64516 75.6817L5.64516 72.2726Z" fill="#0DB75F"/>
<path d="M5.64516 85.9091C6.38649 85.9091 7.12057 85.9973 7.80547 86.1686C8.49037 86.3399 9.11269 86.591 9.63689 86.9076C10.1611 87.2242 10.5769 87.6 10.8606 88.0136C11.1443 88.4272 11.2903 88.8705 11.2903 89.3182C11.2903 89.7659 11.1443 90.2092 10.8606 90.6228C10.5769 91.0364 10.1611 91.4122 9.63689 91.7288C9.11269 92.0454 8.49037 92.2965 7.80547 92.4678C7.12057 92.6391 6.38649 92.7273 5.64516 92.7273L5.64516 89.3182L5.64516 85.9091Z" fill="#0DB75F"/>
<path d="M5.64516 99.5453C6.38649 99.5453 7.12057 99.6335 7.80547 99.8048C8.49037 99.9762 9.11269 100.227 9.63689 100.544C10.1611 100.86 10.5769 101.236 10.8606 101.65C11.1443 102.063 11.2903 102.507 11.2903 102.954C11.2903 103.402 11.1443 103.845 10.8606 104.259C10.5769 104.673 10.1611 105.048 9.63689 105.365C9.11269 105.682 8.49037 105.933 7.80547 106.104C7.12057 106.275 6.38649 106.364 5.64516 106.364L5.64516 102.954L5.64516 99.5453Z" fill="#0DB75F"/>
<path d="M5.64516 113.182C6.38649 113.182 7.12057 113.27 7.80547 113.441C8.49037 113.613 9.11269 113.864 9.63689 114.18C10.1611 114.497 10.5769 114.873 10.8606 115.286C11.1443 115.7 11.2903 116.143 11.2903 116.591C11.2903 117.039 11.1443 117.482 10.8606 117.896C10.5769 118.309 10.1611 118.685 9.63689 119.002C9.11269 119.318 8.49037 119.569 7.80547 119.74C7.12057 119.912 6.38649 120 5.64516 120L5.64516 116.591L5.64516 113.182Z" fill="#0DB75F"/>
<ellipse cx="23.7096" cy="143.864" rx="5.64516" ry="3.40909" transform="rotate(180 23.7096 143.864)" fill="#0DB75F"/>
<ellipse cx="41.7743" cy="143.864" rx="5.64516" ry="3.40909" transform="rotate(180 41.7743 143.864)" fill="#E12020"/>
</svg>
